<svg xmlns="http://www.w3.org/2000/svg" width="900" height="160" viewBox="0 0 900 160" role="img" aria-labelledby="title desc">
  <title id="title">Hydrogen, Energy and Combustion Systems Laboratory — HECS IITG</title>
  <desc id="desc">HECS IITG, School of Energy Science and Engineering, Indian Institute of Technology Guwahati</desc>
  <defs>
    <linearGradient id="drop" x1="0" y1="0" x2="1" y2="1">
      <stop offset="0" stop-color="#1593EA"/><stop offset="0.58" stop-color="#005BBB"/><stop offset="1" stop-color="#0B2342"/>
    </linearGradient>
    <linearGradient id="flame" x1="0" y1="0" x2=".8" y2="1">
      <stop offset="0" stop-color="#FFB20D"/><stop offset=".55" stop-color="#FF8A00"/><stop offset="1" stop-color="#F04A00"/>
    </linearGradient>
  </defs>

  <!-- HECS emblem -->
  <g transform="translate(8 10)">
    <circle cx="70" cy="70" r="62" fill="#fff" stroke="#0B2342" stroke-width="4.5"/>
    <circle cx="70" cy="70" r="55" fill="none" stroke="#00A79D" stroke-width="2.5"/>
    <circle cx="119" cy="32" r="4.5" fill="#00A79D"/>
    <path d="M27 72 C43 58 58 56 71 62 C88 70 102 66 113 54" fill="none" stroke="#00A79D" stroke-width="4.5" stroke-linecap="round"/>
    <path d="M35 75 C49 85 66 87 80 82 C96 77 106 68 114 55" fill="none" stroke="#00A79D" stroke-width="1.8" stroke-linecap="round" opacity=".6"/>
    <path d="M58 29 C55 43 38 54 38 73 C38 89 49 100 62 100 C76 100 86 89 86 74 C86 56 69 43 58 29 Z" fill="url(#drop)"/>
    <text x="62" y="78" text-anchor="middle" font-family="Arial,DejaVu Sans,sans-serif" font-size="15" font-weight="800" fill="#fff">H<tspan baseline-shift="sub" font-size="9">2</tspan></text>
    <path d="M81 28 C90 40 88 50 97 59 C104 66 112 73 111 84 C110 96 102 105 89 108 C97 99 97 90 92 85 C88 81 84 77 86 70 C87 62 94 58 91 51 C89 45 83 38 81 28 Z" fill="url(#flame)"/>
    <path d="M91 59 C99 68 101 75 98 81 C96 86 92 89 88 91 C91 84 89 80 87 77 C85 73 87 68 91 59 Z" fill="#fff"/>
    <g fill="#0B2342">
      <rect x="49" y="96" width="43" height="6.5" rx="1.7"/>
      <rect x="51" y="105" width="39" height="3.6" rx="1"/>
      <path d="M52 111 H89 V123 H79 C76 123 75 121 75 118 V116 H68 V118 C68 121 66 123 63 123 H52 Z"/>
      <circle cx="71" cy="118" r="6"/>
      <path d="M68 123 L64 135 L69 139 H73 L78 135 L74 123 Z"/>
    </g>
    <circle cx="71" cy="118" r="3" fill="#fff"/>
    <circle cx="71" cy="134" r="3" fill="#fff" stroke="#0B2342" stroke-width="1.5"/>
  </g>

  <!-- Institutional wordmark: lab name is primary -->
  <g transform="translate(154 15)">
    <text x="0" y="39" font-family="Inter,Arial,DejaVu Sans,sans-serif" font-size="36" font-weight="850" letter-spacing="-.6" fill="#0B2342">Hydrogen, Energy &amp; Combustion</text>
    <text x="0" y="82" font-family="Inter,Arial,DejaVu Sans,sans-serif" font-size="36" font-weight="850" letter-spacing="-.6" fill="#0B2342">Systems Laboratory</text>
    <line x1="0" y1="98" x2="66" y2="98" stroke="#00A79D" stroke-width="4"/>
    <text x="80" y="104" font-family="Inter,Arial,DejaVu Sans,sans-serif" font-size="20" font-weight="900" letter-spacing="2.8" fill="#00A79D">HECS IITG</text>
    <text x="0" y="133" font-family="Inter,Arial,DejaVu Sans,sans-serif" font-size="14.5" font-weight="650" fill="#5F7180">School of Energy Science and Engineering · Indian Institute of Technology Guwahati</text>
  </g>
</svg>
